<svg width="55" height="55" viewBox="0 0 55 55" fill="none" xmlns="http://www.w3.org/2000/svg">
<path d="M55 27.5C55 42.6878 42.6878 55 27.5 55C12.3122 55 0 42.6878 0 27.5C0 12.3122 12.3122 0 27.5 0C42.6878 0 55 12.3122 55 27.5Z" fill="url(#paint0_linear_245_15)"/>
<path d="M34.3656 7.91012C27.0607 7.982 20.7729 13.0104 19.0418 20.1646C17.3106 27.3188 20.5689 34.8107 26.9823 38.4229C33.3957 42.035 41.3613 40.8646 46.3951 35.5704C41.9403 45.2825 30.6606 49.6288 20.8224 45.4241C10.9843 41.2195 6.08728 29.9594 9.72029 19.8962C13.3533 9.83287 24.224 4.546 34.3656 7.91012Z" fill="white"/>
<path d="M34.7242 35.4861C35.3413 27.3122 37.8152 24.862 45.9937 24.2166C37.8654 23.5399 35.3898 21.0785 34.7591 12.9042C34.2722 20.9107 31.4657 23.6789 23.4896 24.1737C31.5702 24.8104 34.0558 27.2611 34.7242 35.4861Z" fill="white"/>
<defs>
<linearGradient id="paint0_linear_245_15" x1="12.0313" y1="9.625" x2="40.2188" y2="46.75" gradientUnits="userSpaceOnUse">
<stop stop-color="#F3B5FD"/>
<stop offset="1" stop-color="#53F5FF"/>
</linearGradient>
</defs>
</svg>
